<svg width="37" height="37" viewBox="0 0 37 37" fill="none" xmlns="http://www.w3.org/2000/svg">
<circle cx="18.5" cy="18.5" r="18.5" fill="#03A9F4"/>
<path d="M26.2462 8.75483C26.1282 8.63729 25.979 8.55592 25.8162 8.52027C25.6535 8.48461 25.4839 8.49617 25.3275 8.55358L6.0775 15.5536C5.91149 15.6165 5.76856 15.7285 5.6677 15.8747C5.56684 16.0208 5.51282 16.1941 5.51282 16.3717C5.51282 16.5493 5.56684 16.7226 5.6677 16.8687C5.76856 17.0149 5.91149 17.1269 6.0775 17.1898L13.5937 20.1911L19.1412 14.6261L20.375 15.8598L14.8012 21.4336L17.8112 28.9498C17.8761 29.1126 17.9883 29.2522 18.1334 29.3505C18.2785 29.4488 18.4498 29.5012 18.625 29.5011C18.8018 29.4975 18.9734 29.4403 19.1171 29.3372C19.2608 29.2341 19.3699 29.0899 19.43 28.9236L26.43 9.67358C26.4896 9.51877 26.504 9.35021 26.4715 9.18754C26.4389 9.02487 26.3608 8.8748 26.2462 8.75483Z" fill="white"/>
</svg>
